# xmcd CD database file
#
# Track frame offsets:
#	150
#	8850
#	18502
#	38195
#	48972
#	69000
#	79882
#	97355
#	115632
#	123892
#	134905
#	145032
#	155035
#	171965
#	188007
#	204542
#	225167
#	241375
#	272565
#
# Disc length: 4440 seconds
#
# Revision: 0
# Processed by: cddbd v1.5PL3 Copyright (c) Steve Scherf et al.
# Submitted via: CDex 1.51
#
DISCID=00115613
DTITLE=Various Artist - velfarre Cyber TRANCE 10 Anniversary BEST HIT TRANCE - DISC2
DYEAR=2004
DGENRE=Trance
TTITLE0=MOONLIGHT SHADOW (Warp Brothers remix) - GROOVE COVERAGE
TTITLE1=MOONLIGHT SHADOW (Rocco remix) - GROOVE COVERAGE
TTITLE2=GOING INSANE - WARP BROTHERS feat. RED MONKEY
TTITLE3=ANARCHY (Champagne mix) - DON DIABLO
TTITLE4=NEW TIME NEW PLACE - MAURO PICOTTO and RICCARDO FERRI
TTITLE5=ARYA (Reverb mix) - DJ ENERGY
TTITLE6=SUNSHINE (Wippenberg remix) - SEAN and KIM
TTITLE7=FASCINATED - FUSION 808
TTITLE8=THIS FEELING (Acrylite's Hard remix) - KID Q
TTITLE9=THE END - TUBE-TECH
TTITLE10=RAW 009 - GUY McAFFER
TTITLE11=BACK TO EARTH (Public Domain remix) - YVES DERUYTER
TTITLE12=HARDSTYLE DISCO - YOJI BIOMEHANIKA
TTITLE13=SOMEBODY SCREAM (Wavetraxx remix) - KENNY TAKITO pres.: CRASH'N BURN
TTITLE14=SPREAD YOUR WINGS - SYSTEM F
TTITLE15=DAMAGED (Antillas remix) - PLUMMET
TTITLE16=BEETHOVEN NEUNTEN SINFONIE - Cyber NATION
TTITLE17=OUT OF THE BLUE (Version Classique) - ORCHESTRE Cyber FRANCE DE PARIS
TTITLE18=@
EXTD=YEAR: 2004
EXTT0=
EXTT1=
EXTT2=
EXTT3=
EXTT4=
EXTT5=
EXTT6=
EXTT7=
EXTT8=
EXTT9=
EXTT10=
EXTT11=
EXTT12=
EXTT13=
EXTT14=
EXTT15=
EXTT16=
EXTT17=
EXTT18=
PLAYORDER=
